<mxfile host="app.diagrams.net" agent="Mozilla/5.0 (Windows NT 10.0; Win64; x64) AppleWebKit/537.36 (KHTML, like Gecko) Chrome/131.0.0.0 Safari/537.36 Edg/131.0.0.0" version="25.0.3">
  <diagram name="Page-1" id="NEh8WGYqPEkXAkYa_xEx">
    <mxGraphModel dx="2849" dy="1207" grid="1" gridSize="10" guides="1" tooltips="1" connect="1" arrows="1" fold="1" page="1" pageScale="1" pageWidth="7000" pageHeight="7000" math="0" shadow="0">
      <root>
        <mxCell id="0" />
        <mxCell id="1" parent="0" />
        <mxCell id="oWYilS1HCCAZtfWQUwDj-1" value="Student" style="whiteSpace=wrap;html=1;align=center;fillColor=#dae8fc;strokeColor=#6c8ebf;" parent="1" vertex="1">
          <mxGeometry x="2970" y="3690" width="100" height="40" as="geometry" />
        </mxCell>
        <mxCell id="oWYilS1HCCAZtfWQUwDj-178" style="edgeStyle=orthogonalEdgeStyle;rounded=0;orthogonalLoop=1;jettySize=auto;html=1;exitX=0.75;exitY=0;exitDx=0;exitDy=0;entryX=0.5;entryY=1;entryDx=0;entryDy=0;endArrow=none;endFill=0;" parent="1" source="oWYilS1HCCAZtfWQUwDj-2" target="oWYilS1HCCAZtfWQUwDj-54" edge="1">
          <mxGeometry relative="1" as="geometry" />
        </mxCell>
        <mxCell id="oWYilS1HCCAZtfWQUwDj-179" style="edgeStyle=orthogonalEdgeStyle;rounded=0;orthogonalLoop=1;jettySize=auto;html=1;exitX=1;exitY=0.75;exitDx=0;exitDy=0;endArrow=none;endFill=0;" parent="1" source="oWYilS1HCCAZtfWQUwDj-2" target="oWYilS1HCCAZtfWQUwDj-48" edge="1">
          <mxGeometry relative="1" as="geometry">
            <Array as="points">
              <mxPoint x="4120" y="3720" />
            </Array>
          </mxGeometry>
        </mxCell>
        <mxCell id="oWYilS1HCCAZtfWQUwDj-2" value="Classes" style="whiteSpace=wrap;html=1;align=center;fillColor=#dae8fc;strokeColor=#6c8ebf;" parent="1" vertex="1">
          <mxGeometry x="3810" y="3690" width="100" height="40" as="geometry" />
        </mxCell>
        <mxCell id="oWYilS1HCCAZtfWQUwDj-3" value="Teacher" style="whiteSpace=wrap;html=1;align=center;fillColor=#dae8fc;strokeColor=#6c8ebf;" parent="1" vertex="1">
          <mxGeometry x="3810" y="2980" width="100" height="40" as="geometry" />
        </mxCell>
        <mxCell id="oWYilS1HCCAZtfWQUwDj-4" value="Staff" style="whiteSpace=wrap;html=1;align=center;fillColor=#dae8fc;strokeColor=#6c8ebf;" parent="1" vertex="1">
          <mxGeometry x="3810" y="2900" width="100" height="40" as="geometry" />
        </mxCell>
        <mxCell id="oWYilS1HCCAZtfWQUwDj-5" value="Department" style="whiteSpace=wrap;html=1;align=center;fillColor=#dae8fc;strokeColor=#6c8ebf;" parent="1" vertex="1">
          <mxGeometry x="4440" y="3690" width="100" height="40" as="geometry" />
        </mxCell>
        <mxCell id="oWYilS1HCCAZtfWQUwDj-6" value="Teaching Schedule" style="whiteSpace=wrap;html=1;align=center;fillColor=#dae8fc;strokeColor=#6c8ebf;" parent="1" vertex="1">
          <mxGeometry x="4440" y="2980" width="100" height="40" as="geometry" />
        </mxCell>
        <mxCell id="oWYilS1HCCAZtfWQUwDj-7" value="Revenue Report" style="whiteSpace=wrap;html=1;align=center;fillColor=#dae8fc;strokeColor=#6c8ebf;" parent="1" vertex="1">
          <mxGeometry x="4440" y="3180" width="100" height="40" as="geometry" />
        </mxCell>
        <mxCell id="oWYilS1HCCAZtfWQUwDj-8" value="Academic" style="whiteSpace=wrap;html=1;align=center;fillColor=#dae8fc;strokeColor=#6c8ebf;" parent="1" vertex="1">
          <mxGeometry x="2320" y="3180" width="90" height="40" as="geometry" />
        </mxCell>
        <mxCell id="oWYilS1HCCAZtfWQUwDj-9" value="Extracurricular" style="whiteSpace=wrap;html=1;align=center;fillColor=#dae8fc;strokeColor=#6c8ebf;" parent="1" vertex="1">
          <mxGeometry x="2430" y="3180" width="90" height="40" as="geometry" />
        </mxCell>
        <mxCell id="oWYilS1HCCAZtfWQUwDj-10" value="Activity" style="whiteSpace=wrap;html=1;align=center;fillColor=#dae8fc;strokeColor=#6c8ebf;" parent="1" vertex="1">
          <mxGeometry x="2370" y="2900" width="100" height="40" as="geometry" />
        </mxCell>
        <mxCell id="oWYilS1HCCAZtfWQUwDj-11" value="Resource" style="whiteSpace=wrap;html=1;align=center;fillColor=#dae8fc;strokeColor=#6c8ebf;" parent="1" vertex="1">
          <mxGeometry x="4070" y="3380" width="100" height="40" as="geometry" />
        </mxCell>
        <mxCell id="oWYilS1HCCAZtfWQUwDj-12" value="AttendanceReport" style="whiteSpace=wrap;html=1;align=center;fillColor=#dae8fc;strokeColor=#6c8ebf;" parent="1" vertex="1">
          <mxGeometry x="3320" y="3900" width="110" height="40" as="geometry" />
        </mxCell>
        <mxCell id="oWYilS1HCCAZtfWQUwDj-13" value="Performance Report Online" style="whiteSpace=wrap;html=1;align=center;fillColor=#dae8fc;strokeColor=#6c8ebf;" parent="1" vertex="1">
          <mxGeometry x="3290" y="3370" width="100" height="40" as="geometry" />
        </mxCell>
        <mxCell id="oWYilS1HCCAZtfWQUwDj-14" value="Disciplinary Action" style="whiteSpace=wrap;html=1;align=center;fillColor=#dae8fc;strokeColor=#6c8ebf;" parent="1" vertex="1">
          <mxGeometry x="2970" y="3530" width="100" height="40" as="geometry" />
        </mxCell>
        <mxCell id="oWYilS1HCCAZtfWQUwDj-15" value="Classroom Assignment" style="whiteSpace=wrap;html=1;align=center;fillColor=#dae8fc;strokeColor=#6c8ebf;" parent="1" vertex="1">
          <mxGeometry x="4070" y="4000" width="100" height="40" as="geometry" />
        </mxCell>
        <mxCell id="oWYilS1HCCAZtfWQUwDj-23" value="" style="endArrow=none;html=1;rounded=0;exitX=0.5;exitY=0;exitDx=0;exitDy=0;entryX=0.5;entryY=1;entryDx=0;entryDy=0;" parent="1" source="oWYilS1HCCAZtfWQUwDj-8" target="oWYilS1HCCAZtfWQUwDj-10" edge="1">
          <mxGeometry relative="1" as="geometry">
            <mxPoint x="2640" y="3150" as="sourcePoint" />
            <mxPoint x="2800" y="3150" as="targetPoint" />
          </mxGeometry>
        </mxCell>
        <mxCell id="oWYilS1HCCAZtfWQUwDj-24" value="" style="endArrow=none;html=1;rounded=0;exitX=0.5;exitY=1;exitDx=0;exitDy=0;entryX=0.5;entryY=0;entryDx=0;entryDy=0;" parent="1" source="oWYilS1HCCAZtfWQUwDj-10" target="oWYilS1HCCAZtfWQUwDj-9" edge="1">
          <mxGeometry relative="1" as="geometry">
            <mxPoint x="2640" y="3150" as="sourcePoint" />
            <mxPoint x="2800" y="3150" as="targetPoint" />
          </mxGeometry>
        </mxCell>
        <mxCell id="oWYilS1HCCAZtfWQUwDj-25" value="" style="endArrow=none;html=1;rounded=0;exitX=0.5;exitY=1;exitDx=0;exitDy=0;entryX=0.5;entryY=0;entryDx=0;entryDy=0;" parent="1" source="oWYilS1HCCAZtfWQUwDj-4" target="oWYilS1HCCAZtfWQUwDj-3" edge="1">
          <mxGeometry relative="1" as="geometry">
            <mxPoint x="3690" y="3340" as="sourcePoint" />
            <mxPoint x="3850" y="3340" as="targetPoint" />
          </mxGeometry>
        </mxCell>
        <mxCell id="oWYilS1HCCAZtfWQUwDj-26" value="ParticipatesIn" style="shape=rhombus;perimeter=rhombusPerimeter;whiteSpace=wrap;html=1;align=center;fillColor=#fff2cc;strokeColor=#d6b656;" parent="1" vertex="1">
          <mxGeometry x="2415" y="3680" width="120" height="60" as="geometry" />
        </mxCell>
        <mxCell id="oWYilS1HCCAZtfWQUwDj-176" style="edgeStyle=orthogonalEdgeStyle;rounded=0;orthogonalLoop=1;jettySize=auto;html=1;exitX=1;exitY=0.75;exitDx=0;exitDy=0;entryX=0;entryY=0.5;entryDx=0;entryDy=0;endArrow=none;endFill=0;" parent="1" source="oWYilS1HCCAZtfWQUwDj-29" target="oWYilS1HCCAZtfWQUwDj-33" edge="1">
          <mxGeometry relative="1" as="geometry" />
        </mxCell>
        <mxCell id="oWYilS1HCCAZtfWQUwDj-29" value="Parent" style="whiteSpace=wrap;html=1;align=center;fillColor=#dae8fc;strokeColor=#6c8ebf;" parent="1" vertex="1">
          <mxGeometry x="2720" y="3180" width="100" height="40" as="geometry" />
        </mxCell>
        <mxCell id="oWYilS1HCCAZtfWQUwDj-177" style="edgeStyle=orthogonalEdgeStyle;rounded=0;orthogonalLoop=1;jettySize=auto;html=1;exitX=0.5;exitY=1;exitDx=0;exitDy=0;entryX=0.25;entryY=0;entryDx=0;entryDy=0;endArrow=none;endFill=0;" parent="1" source="oWYilS1HCCAZtfWQUwDj-30" target="oWYilS1HCCAZtfWQUwDj-1" edge="1">
          <mxGeometry relative="1" as="geometry" />
        </mxCell>
        <mxCell id="oWYilS1HCCAZtfWQUwDj-30" value="Has" style="shape=rhombus;perimeter=rhombusPerimeter;whiteSpace=wrap;html=1;align=center;fillColor=#fff2cc;strokeColor=#d6b656;" parent="1" vertex="1">
          <mxGeometry x="2710" y="3590" width="120" height="60" as="geometry" />
        </mxCell>
        <mxCell id="oWYilS1HCCAZtfWQUwDj-32" value="" style="endArrow=none;html=1;rounded=0;exitX=0.5;exitY=0;exitDx=0;exitDy=0;entryX=0.5;entryY=1;entryDx=0;entryDy=0;" parent="1" source="oWYilS1HCCAZtfWQUwDj-30" target="oWYilS1HCCAZtfWQUwDj-29" edge="1">
          <mxGeometry relative="1" as="geometry">
            <mxPoint x="2890" y="3560" as="sourcePoint" />
            <mxPoint x="3050" y="3560" as="targetPoint" />
          </mxGeometry>
        </mxCell>
        <mxCell id="oWYilS1HCCAZtfWQUwDj-33" value="Views" style="shape=rhombus;perimeter=rhombusPerimeter;whiteSpace=wrap;html=1;align=center;fillColor=#fff2cc;strokeColor=#d6b656;" parent="1" vertex="1">
          <mxGeometry x="2950" y="3360" width="120" height="60" as="geometry" />
        </mxCell>
        <mxCell id="oWYilS1HCCAZtfWQUwDj-35" value="" style="endArrow=none;html=1;rounded=0;exitX=1;exitY=0.5;exitDx=0;exitDy=0;entryX=0;entryY=0.5;entryDx=0;entryDy=0;" parent="1" source="oWYilS1HCCAZtfWQUwDj-33" target="oWYilS1HCCAZtfWQUwDj-13" edge="1">
          <mxGeometry relative="1" as="geometry">
            <mxPoint x="2570" y="3470" as="sourcePoint" />
            <mxPoint x="2730" y="3470" as="targetPoint" />
          </mxGeometry>
        </mxCell>
        <mxCell id="oWYilS1HCCAZtfWQUwDj-36" value="Enrollements" style="shape=associativeEntity;whiteSpace=wrap;html=1;align=center;fillColor=#dae8fc;strokeColor=#6c8ebf;" parent="1" vertex="1">
          <mxGeometry x="3270" y="3680" width="140" height="60" as="geometry" />
        </mxCell>
        <mxCell id="oWYilS1HCCAZtfWQUwDj-40" value="Attends" style="shape=rhombus;perimeter=rhombusPerimeter;whiteSpace=wrap;html=1;align=center;fillColor=#fff2cc;strokeColor=#d6b656;" parent="1" vertex="1">
          <mxGeometry x="2960" y="3890" width="120" height="60" as="geometry" />
        </mxCell>
        <mxCell id="oWYilS1HCCAZtfWQUwDj-42" value="" style="endArrow=none;html=1;rounded=0;exitX=0.5;exitY=1;exitDx=0;exitDy=0;entryX=0.5;entryY=0;entryDx=0;entryDy=0;" parent="1" source="oWYilS1HCCAZtfWQUwDj-1" target="oWYilS1HCCAZtfWQUwDj-40" edge="1">
          <mxGeometry relative="1" as="geometry">
            <mxPoint x="3050" y="3820" as="sourcePoint" />
            <mxPoint x="3210" y="3820" as="targetPoint" />
          </mxGeometry>
        </mxCell>
        <mxCell id="oWYilS1HCCAZtfWQUwDj-44" value="" style="endArrow=none;html=1;rounded=0;exitX=1;exitY=0.5;exitDx=0;exitDy=0;entryX=0;entryY=0.5;entryDx=0;entryDy=0;" parent="1" source="oWYilS1HCCAZtfWQUwDj-40" target="oWYilS1HCCAZtfWQUwDj-12" edge="1">
          <mxGeometry relative="1" as="geometry">
            <mxPoint x="2730" y="3890" as="sourcePoint" />
            <mxPoint x="2890" y="3890" as="targetPoint" />
          </mxGeometry>
        </mxCell>
        <mxCell id="oWYilS1HCCAZtfWQUwDj-45" value="Need" style="shape=rhombus;perimeter=rhombusPerimeter;whiteSpace=wrap;html=1;align=center;fillColor=#fff2cc;strokeColor=#d6b656;" parent="1" vertex="1">
          <mxGeometry x="3800" y="3890" width="120" height="60" as="geometry" />
        </mxCell>
        <mxCell id="oWYilS1HCCAZtfWQUwDj-46" value="" style="endArrow=none;html=1;rounded=0;entryX=0;entryY=0.5;entryDx=0;entryDy=0;exitX=1;exitY=0.5;exitDx=0;exitDy=0;" parent="1" source="oWYilS1HCCAZtfWQUwDj-12" target="oWYilS1HCCAZtfWQUwDj-45" edge="1">
          <mxGeometry relative="1" as="geometry">
            <mxPoint x="3080" y="3910" as="sourcePoint" />
            <mxPoint x="2890" y="3890" as="targetPoint" />
          </mxGeometry>
        </mxCell>
        <mxCell id="oWYilS1HCCAZtfWQUwDj-47" value="" style="endArrow=none;html=1;rounded=0;entryX=0.5;entryY=1;entryDx=0;entryDy=0;exitX=0.5;exitY=0;exitDx=0;exitDy=0;" parent="1" source="oWYilS1HCCAZtfWQUwDj-45" target="oWYilS1HCCAZtfWQUwDj-2" edge="1">
          <mxGeometry relative="1" as="geometry">
            <mxPoint x="3340" y="3820" as="sourcePoint" />
            <mxPoint x="3500" y="3820" as="targetPoint" />
          </mxGeometry>
        </mxCell>
        <mxCell id="oWYilS1HCCAZtfWQUwDj-48" value="AssignedTo" style="shape=rhombus;perimeter=rhombusPerimeter;whiteSpace=wrap;html=1;align=center;fillColor=#fff2cc;strokeColor=#d6b656;" parent="1" vertex="1">
          <mxGeometry x="4060" y="3850" width="120" height="60" as="geometry" />
        </mxCell>
        <mxCell id="oWYilS1HCCAZtfWQUwDj-50" value="" style="endArrow=none;html=1;rounded=0;exitX=0.5;exitY=1;exitDx=0;exitDy=0;entryX=0.5;entryY=0;entryDx=0;entryDy=0;" parent="1" source="oWYilS1HCCAZtfWQUwDj-48" target="oWYilS1HCCAZtfWQUwDj-15" edge="1">
          <mxGeometry relative="1" as="geometry">
            <mxPoint x="3770" y="3880" as="sourcePoint" />
            <mxPoint x="3930" y="3880" as="targetPoint" />
          </mxGeometry>
        </mxCell>
        <mxCell id="oWYilS1HCCAZtfWQUwDj-51" value="Teaches" style="shape=rhombus;perimeter=rhombusPerimeter;whiteSpace=wrap;html=1;align=center;fillColor=#fff2cc;strokeColor=#d6b656;" parent="1" vertex="1">
          <mxGeometry x="3800" y="3400" width="120" height="60" as="geometry" />
        </mxCell>
        <mxCell id="oWYilS1HCCAZtfWQUwDj-52" value="" style="endArrow=none;html=1;rounded=0;exitX=0.5;exitY=1;exitDx=0;exitDy=0;entryX=0.5;entryY=0;entryDx=0;entryDy=0;" parent="1" source="oWYilS1HCCAZtfWQUwDj-3" target="oWYilS1HCCAZtfWQUwDj-51" edge="1">
          <mxGeometry relative="1" as="geometry">
            <mxPoint x="3620" y="3820" as="sourcePoint" />
            <mxPoint x="3780" y="3820" as="targetPoint" />
          </mxGeometry>
        </mxCell>
        <mxCell id="oWYilS1HCCAZtfWQUwDj-53" value="" style="endArrow=none;html=1;rounded=0;exitX=0.5;exitY=1;exitDx=0;exitDy=0;entryX=0.5;entryY=0;entryDx=0;entryDy=0;" parent="1" source="oWYilS1HCCAZtfWQUwDj-51" target="oWYilS1HCCAZtfWQUwDj-2" edge="1">
          <mxGeometry relative="1" as="geometry">
            <mxPoint x="3620" y="3820" as="sourcePoint" />
            <mxPoint x="3780" y="3820" as="targetPoint" />
          </mxGeometry>
        </mxCell>
        <mxCell id="oWYilS1HCCAZtfWQUwDj-54" value="Uses" style="shape=rhombus;perimeter=rhombusPerimeter;whiteSpace=wrap;html=1;align=center;fillColor=#fff2cc;strokeColor=#d6b656;" parent="1" vertex="1">
          <mxGeometry x="4060" y="3470" width="120" height="60" as="geometry" />
        </mxCell>
        <mxCell id="oWYilS1HCCAZtfWQUwDj-56" value="" style="endArrow=none;html=1;rounded=0;exitX=0.5;exitY=0;exitDx=0;exitDy=0;entryX=0.5;entryY=1;entryDx=0;entryDy=0;" parent="1" source="oWYilS1HCCAZtfWQUwDj-54" target="oWYilS1HCCAZtfWQUwDj-11" edge="1">
          <mxGeometry relative="1" as="geometry">
            <mxPoint x="3730" y="3650" as="sourcePoint" />
            <mxPoint x="3890" y="3650" as="targetPoint" />
          </mxGeometry>
        </mxCell>
        <mxCell id="oWYilS1HCCAZtfWQUwDj-57" value="Manages" style="shape=rhombus;perimeter=rhombusPerimeter;whiteSpace=wrap;html=1;align=center;fillColor=#fff2cc;strokeColor=#d6b656;" parent="1" vertex="1">
          <mxGeometry x="4230" y="3680" width="120" height="60" as="geometry" />
        </mxCell>
        <mxCell id="oWYilS1HCCAZtfWQUwDj-59" value="" style="endArrow=none;html=1;rounded=0;entryX=0;entryY=0.5;entryDx=0;entryDy=0;exitX=1;exitY=0.5;exitDx=0;exitDy=0;" parent="1" source="oWYilS1HCCAZtfWQUwDj-2" target="oWYilS1HCCAZtfWQUwDj-57" edge="1">
          <mxGeometry relative="1" as="geometry">
            <mxPoint x="3620" y="3820" as="sourcePoint" />
            <mxPoint x="3780" y="3820" as="targetPoint" />
          </mxGeometry>
        </mxCell>
        <mxCell id="oWYilS1HCCAZtfWQUwDj-60" value="" style="endArrow=none;html=1;rounded=0;entryX=0;entryY=0.5;entryDx=0;entryDy=0;exitX=1;exitY=0.5;exitDx=0;exitDy=0;" parent="1" source="oWYilS1HCCAZtfWQUwDj-57" target="oWYilS1HCCAZtfWQUwDj-5" edge="1">
          <mxGeometry relative="1" as="geometry">
            <mxPoint x="3710" y="3820" as="sourcePoint" />
            <mxPoint x="3870" y="3820" as="targetPoint" />
          </mxGeometry>
        </mxCell>
        <mxCell id="oWYilS1HCCAZtfWQUwDj-61" value="TuitionFeePayment" style="shape=rhombus;perimeter=rhombusPerimeter;whiteSpace=wrap;html=1;align=center;fillColor=#fff2cc;strokeColor=#d6b656;" parent="1" vertex="1">
          <mxGeometry x="3400" y="3170" width="150" height="60" as="geometry" />
        </mxCell>
        <mxCell id="oWYilS1HCCAZtfWQUwDj-64" value="" style="endArrow=none;html=1;rounded=0;exitX=1;exitY=0.5;exitDx=0;exitDy=0;entryX=0;entryY=0.5;entryDx=0;entryDy=0;" parent="1" source="oWYilS1HCCAZtfWQUwDj-29" target="oWYilS1HCCAZtfWQUwDj-61" edge="1">
          <mxGeometry relative="1" as="geometry">
            <mxPoint x="3010" y="3580" as="sourcePoint" />
            <mxPoint x="3170" y="3580" as="targetPoint" />
          </mxGeometry>
        </mxCell>
        <mxCell id="oWYilS1HCCAZtfWQUwDj-65" value="" style="endArrow=none;html=1;rounded=0;exitX=1;exitY=0.5;exitDx=0;exitDy=0;entryX=0;entryY=0.5;entryDx=0;entryDy=0;" parent="1" source="oWYilS1HCCAZtfWQUwDj-61" target="oWYilS1HCCAZtfWQUwDj-7" edge="1">
          <mxGeometry relative="1" as="geometry">
            <mxPoint x="3010" y="3580" as="sourcePoint" />
            <mxPoint x="3170" y="3580" as="targetPoint" />
          </mxGeometry>
        </mxCell>
        <mxCell id="oWYilS1HCCAZtfWQUwDj-66" value="Meets" style="shape=rhombus;perimeter=rhombusPerimeter;whiteSpace=wrap;html=1;align=center;fillColor=#fff2cc;strokeColor=#d6b656;" parent="1" vertex="1">
          <mxGeometry x="2710" y="2970" width="120" height="60" as="geometry" />
        </mxCell>
        <mxCell id="oWYilS1HCCAZtfWQUwDj-67" value="" style="endArrow=none;html=1;rounded=0;exitX=0.5;exitY=0;exitDx=0;exitDy=0;entryX=0.5;entryY=1;entryDx=0;entryDy=0;" parent="1" source="oWYilS1HCCAZtfWQUwDj-29" target="oWYilS1HCCAZtfWQUwDj-66" edge="1">
          <mxGeometry relative="1" as="geometry">
            <mxPoint x="3330" y="3580" as="sourcePoint" />
            <mxPoint x="3490" y="3580" as="targetPoint" />
          </mxGeometry>
        </mxCell>
        <mxCell id="oWYilS1HCCAZtfWQUwDj-68" value="" style="endArrow=none;html=1;rounded=0;exitX=1;exitY=0.5;exitDx=0;exitDy=0;entryX=0;entryY=0.5;entryDx=0;entryDy=0;" parent="1" source="oWYilS1HCCAZtfWQUwDj-66" target="oWYilS1HCCAZtfWQUwDj-3" edge="1">
          <mxGeometry relative="1" as="geometry">
            <mxPoint x="3010" y="3460" as="sourcePoint" />
            <mxPoint x="3170" y="3460" as="targetPoint" />
          </mxGeometry>
        </mxCell>
        <mxCell id="oWYilS1HCCAZtfWQUwDj-69" value="Manage" style="shape=rhombus;perimeter=rhombusPerimeter;whiteSpace=wrap;html=1;align=center;fillColor=#fff2cc;strokeColor=#d6b656;" parent="1" vertex="1">
          <mxGeometry x="3180" y="2890" width="120" height="60" as="geometry" />
        </mxCell>
        <mxCell id="oWYilS1HCCAZtfWQUwDj-71" value="" style="endArrow=none;html=1;rounded=0;exitX=1;exitY=0.5;exitDx=0;exitDy=0;entryX=0;entryY=0.5;entryDx=0;entryDy=0;" parent="1" source="oWYilS1HCCAZtfWQUwDj-10" target="oWYilS1HCCAZtfWQUwDj-69" edge="1">
          <mxGeometry relative="1" as="geometry">
            <mxPoint x="3330" y="3460" as="sourcePoint" />
            <mxPoint x="3490" y="3460" as="targetPoint" />
          </mxGeometry>
        </mxCell>
        <mxCell id="oWYilS1HCCAZtfWQUwDj-77" value="" style="endArrow=none;html=1;rounded=0;exitX=1;exitY=0.5;exitDx=0;exitDy=0;entryX=0;entryY=0.5;entryDx=0;entryDy=0;" parent="1" source="oWYilS1HCCAZtfWQUwDj-69" target="oWYilS1HCCAZtfWQUwDj-4" edge="1">
          <mxGeometry relative="1" as="geometry">
            <mxPoint x="3010" y="3460" as="sourcePoint" />
            <mxPoint x="3170" y="3460" as="targetPoint" />
          </mxGeometry>
        </mxCell>
        <mxCell id="oWYilS1HCCAZtfWQUwDj-78" value="Checks" style="shape=rhombus;perimeter=rhombusPerimeter;whiteSpace=wrap;html=1;align=center;fillColor=#fff2cc;strokeColor=#d6b656;" parent="1" vertex="1">
          <mxGeometry x="4100" y="2970" width="120" height="60" as="geometry" />
        </mxCell>
        <mxCell id="oWYilS1HCCAZtfWQUwDj-80" value="" style="endArrow=none;html=1;rounded=0;exitX=1;exitY=0.5;exitDx=0;exitDy=0;entryX=0;entryY=0.5;entryDx=0;entryDy=0;" parent="1" source="oWYilS1HCCAZtfWQUwDj-3" target="oWYilS1HCCAZtfWQUwDj-78" edge="1">
          <mxGeometry relative="1" as="geometry">
            <mxPoint x="3620" y="3460" as="sourcePoint" />
            <mxPoint x="3780" y="3460" as="targetPoint" />
          </mxGeometry>
        </mxCell>
        <mxCell id="oWYilS1HCCAZtfWQUwDj-81" value="" style="endArrow=none;html=1;rounded=0;exitX=1;exitY=0.5;exitDx=0;exitDy=0;entryX=0;entryY=0.5;entryDx=0;entryDy=0;" parent="1" source="oWYilS1HCCAZtfWQUwDj-78" target="oWYilS1HCCAZtfWQUwDj-6" edge="1">
          <mxGeometry relative="1" as="geometry">
            <mxPoint x="3710" y="3460" as="sourcePoint" />
            <mxPoint x="3870" y="3460" as="targetPoint" />
          </mxGeometry>
        </mxCell>
        <mxCell id="oWYilS1HCCAZtfWQUwDj-82" value="Oversee" style="shape=rhombus;perimeter=rhombusPerimeter;whiteSpace=wrap;html=1;align=center;fillColor=#fff2cc;strokeColor=#d6b656;" parent="1" vertex="1">
          <mxGeometry x="4430" y="3360" width="120" height="60" as="geometry" />
        </mxCell>
        <mxCell id="oWYilS1HCCAZtfWQUwDj-83" value="" style="endArrow=none;html=1;rounded=0;exitX=0.5;exitY=1;exitDx=0;exitDy=0;entryX=0.5;entryY=0;entryDx=0;entryDy=0;" parent="1" source="oWYilS1HCCAZtfWQUwDj-7" target="oWYilS1HCCAZtfWQUwDj-82" edge="1">
          <mxGeometry relative="1" as="geometry">
            <mxPoint x="3800" y="3630" as="sourcePoint" />
            <mxPoint x="3960" y="3630" as="targetPoint" />
          </mxGeometry>
        </mxCell>
        <mxCell id="oWYilS1HCCAZtfWQUwDj-84" value="" style="endArrow=none;html=1;rounded=0;exitX=0.5;exitY=0;exitDx=0;exitDy=0;entryX=0.5;entryY=1;entryDx=0;entryDy=0;" parent="1" source="oWYilS1HCCAZtfWQUwDj-5" target="oWYilS1HCCAZtfWQUwDj-82" edge="1">
          <mxGeometry relative="1" as="geometry">
            <mxPoint x="3800" y="3630" as="sourcePoint" />
            <mxPoint x="3960" y="3630" as="targetPoint" />
          </mxGeometry>
        </mxCell>
        <mxCell id="oWYilS1HCCAZtfWQUwDj-86" value="" style="endArrow=none;html=1;rounded=0;exitX=0.5;exitY=0;exitDx=0;exitDy=0;" parent="1" source="oWYilS1HCCAZtfWQUwDj-1" target="oWYilS1HCCAZtfWQUwDj-87" edge="1">
          <mxGeometry relative="1" as="geometry">
            <mxPoint x="3330" y="3630" as="sourcePoint" />
            <mxPoint x="3490" y="3630" as="targetPoint" />
          </mxGeometry>
        </mxCell>
        <mxCell id="oWYilS1HCCAZtfWQUwDj-87" value="Faces" style="shape=rhombus;perimeter=rhombusPerimeter;whiteSpace=wrap;html=1;align=center;fillColor=#fff2cc;strokeColor=#d6b656;" parent="1" vertex="1">
          <mxGeometry x="2960" y="3600" width="120" height="60" as="geometry" />
        </mxCell>
        <mxCell id="oWYilS1HCCAZtfWQUwDj-88" value="" style="endArrow=none;html=1;rounded=0;exitX=0.5;exitY=0;exitDx=0;exitDy=0;entryX=0.5;entryY=1;entryDx=0;entryDy=0;" parent="1" source="oWYilS1HCCAZtfWQUwDj-87" target="oWYilS1HCCAZtfWQUwDj-14" edge="1">
          <mxGeometry relative="1" as="geometry">
            <mxPoint x="3330" y="3630" as="sourcePoint" />
            <mxPoint x="3490" y="3630" as="targetPoint" />
          </mxGeometry>
        </mxCell>
        <mxCell id="oWYilS1HCCAZtfWQUwDj-91" value="" style="endArrow=none;html=1;rounded=0;exitX=0.5;exitY=1;exitDx=0;exitDy=0;entryX=0.5;entryY=0;entryDx=0;entryDy=0;" parent="1" source="oWYilS1HCCAZtfWQUwDj-13" target="oWYilS1HCCAZtfWQUwDj-36" edge="1">
          <mxGeometry relative="1" as="geometry">
            <mxPoint x="3340" y="3630" as="sourcePoint" />
            <mxPoint x="3500" y="3630" as="targetPoint" />
          </mxGeometry>
        </mxCell>
        <mxCell id="oWYilS1HCCAZtfWQUwDj-94" value="" style="endArrow=none;html=1;rounded=0;entryX=0;entryY=1;entryDx=0;entryDy=0;exitX=0.5;exitY=0;exitDx=0;exitDy=0;" parent="1" source="oWYilS1HCCAZtfWQUwDj-95" target="oWYilS1HCCAZtfWQUwDj-1" edge="1">
          <mxGeometry relative="1" as="geometry">
            <mxPoint x="2970" y="3860" as="sourcePoint" />
            <mxPoint x="3130" y="3860" as="targetPoint" />
          </mxGeometry>
        </mxCell>
        <mxCell id="oWYilS1HCCAZtfWQUwDj-95" value="StudentID" style="ellipse;whiteSpace=wrap;html=1;align=center;" parent="1" vertex="1">
          <mxGeometry x="2870" y="3760" width="70" height="20" as="geometry" />
        </mxCell>
        <mxCell id="oWYilS1HCCAZtfWQUwDj-96" value="Name" style="ellipse;whiteSpace=wrap;html=1;align=center;" parent="1" vertex="1">
          <mxGeometry x="2950" y="3760" width="40" height="20" as="geometry" />
        </mxCell>
        <mxCell id="oWYilS1HCCAZtfWQUwDj-97" value="DOB" style="ellipse;whiteSpace=wrap;html=1;align=center;" parent="1" vertex="1">
          <mxGeometry x="3030" y="3760" width="40" height="20" as="geometry" />
        </mxCell>
        <mxCell id="oWYilS1HCCAZtfWQUwDj-98" value="Grade" style="ellipse;whiteSpace=wrap;html=1;align=center;" parent="1" vertex="1">
          <mxGeometry x="3080" y="3760" width="40" height="20" as="geometry" />
        </mxCell>
        <mxCell id="oWYilS1HCCAZtfWQUwDj-99" value="Address" style="ellipse;whiteSpace=wrap;html=1;align=center;" parent="1" vertex="1">
          <mxGeometry x="3120" y="3650" width="60" height="20" as="geometry" />
        </mxCell>
        <mxCell id="oWYilS1HCCAZtfWQUwDj-101" value="" style="endArrow=none;html=1;rounded=0;entryX=0.25;entryY=1;entryDx=0;entryDy=0;exitX=0.5;exitY=0;exitDx=0;exitDy=0;" parent="1" source="oWYilS1HCCAZtfWQUwDj-96" target="oWYilS1HCCAZtfWQUwDj-1" edge="1">
          <mxGeometry relative="1" as="geometry">
            <mxPoint x="2970" y="3860" as="sourcePoint" />
            <mxPoint x="3130" y="3860" as="targetPoint" />
          </mxGeometry>
        </mxCell>
        <mxCell id="oWYilS1HCCAZtfWQUwDj-102" value="" style="endArrow=none;html=1;rounded=0;exitX=0.75;exitY=1;exitDx=0;exitDy=0;entryX=0.5;entryY=0;entryDx=0;entryDy=0;" parent="1" source="oWYilS1HCCAZtfWQUwDj-1" target="oWYilS1HCCAZtfWQUwDj-97" edge="1">
          <mxGeometry relative="1" as="geometry">
            <mxPoint x="2970" y="3860" as="sourcePoint" />
            <mxPoint x="3110" y="3750" as="targetPoint" />
          </mxGeometry>
        </mxCell>
        <mxCell id="oWYilS1HCCAZtfWQUwDj-103" value="" style="endArrow=none;html=1;rounded=0;exitX=1;exitY=1;exitDx=0;exitDy=0;entryX=0.5;entryY=0;entryDx=0;entryDy=0;" parent="1" source="oWYilS1HCCAZtfWQUwDj-1" target="oWYilS1HCCAZtfWQUwDj-98" edge="1">
          <mxGeometry relative="1" as="geometry">
            <mxPoint x="2970" y="3860" as="sourcePoint" />
            <mxPoint x="3130" y="3860" as="targetPoint" />
          </mxGeometry>
        </mxCell>
        <mxCell id="oWYilS1HCCAZtfWQUwDj-104" value="" style="endArrow=none;html=1;rounded=0;exitX=1;exitY=0;exitDx=0;exitDy=0;entryX=0;entryY=0.5;entryDx=0;entryDy=0;" parent="1" source="oWYilS1HCCAZtfWQUwDj-1" target="oWYilS1HCCAZtfWQUwDj-99" edge="1">
          <mxGeometry relative="1" as="geometry">
            <mxPoint x="2970" y="3860" as="sourcePoint" />
            <mxPoint x="3130" y="3860" as="targetPoint" />
          </mxGeometry>
        </mxCell>
        <mxCell id="oWYilS1HCCAZtfWQUwDj-106" value="EnrollementsID" style="ellipse;whiteSpace=wrap;html=1;align=center;" parent="1" vertex="1">
          <mxGeometry x="3240" y="3780" width="100" height="25" as="geometry" />
        </mxCell>
        <mxCell id="oWYilS1HCCAZtfWQUwDj-107" value="Grade" style="ellipse;whiteSpace=wrap;html=1;align=center;" parent="1" vertex="1">
          <mxGeometry x="3360" y="3785" width="40" height="20" as="geometry" />
        </mxCell>
        <mxCell id="oWYilS1HCCAZtfWQUwDj-108" value="ClassID" style="ellipse;whiteSpace=wrap;html=1;align=center;" parent="1" vertex="1">
          <mxGeometry x="3640" y="3790" width="50" height="20" as="geometry" />
        </mxCell>
        <mxCell id="oWYilS1HCCAZtfWQUwDj-109" value="Name" style="ellipse;whiteSpace=wrap;html=1;align=center;" parent="1" vertex="1">
          <mxGeometry x="3700" y="3790" width="50" height="20" as="geometry" />
        </mxCell>
        <mxCell id="oWYilS1HCCAZtfWQUwDj-110" value="TeacherID" style="ellipse;whiteSpace=wrap;html=1;align=center;" parent="1" vertex="1">
          <mxGeometry x="3770" y="3785" width="80" height="30" as="geometry" />
        </mxCell>
        <mxCell id="oWYilS1HCCAZtfWQUwDj-111" value="Schedule" style="ellipse;whiteSpace=wrap;html=1;align=center;" parent="1" vertex="1">
          <mxGeometry x="3880" y="3790" width="60" height="20" as="geometry" />
        </mxCell>
        <mxCell id="oWYilS1HCCAZtfWQUwDj-112" value="Maximum Capacity" style="ellipse;whiteSpace=wrap;html=1;align=center;" parent="1" vertex="1">
          <mxGeometry x="3950" y="3780" width="70" height="40" as="geometry" />
        </mxCell>
        <mxCell id="oWYilS1HCCAZtfWQUwDj-114" value="" style="endArrow=none;html=1;rounded=0;exitX=0.5;exitY=0;exitDx=0;exitDy=0;entryX=0;entryY=0.75;entryDx=0;entryDy=0;" parent="1" source="oWYilS1HCCAZtfWQUwDj-108" target="oWYilS1HCCAZtfWQUwDj-2" edge="1">
          <mxGeometry relative="1" as="geometry">
            <mxPoint x="3940" y="3720" as="sourcePoint" />
            <mxPoint x="4100" y="3720" as="targetPoint" />
          </mxGeometry>
        </mxCell>
        <mxCell id="oWYilS1HCCAZtfWQUwDj-116" value="" style="endArrow=none;html=1;rounded=0;exitX=0.5;exitY=0;exitDx=0;exitDy=0;entryX=0;entryY=1;entryDx=0;entryDy=0;" parent="1" source="oWYilS1HCCAZtfWQUwDj-109" target="oWYilS1HCCAZtfWQUwDj-2" edge="1">
          <mxGeometry relative="1" as="geometry">
            <mxPoint x="3940" y="3720" as="sourcePoint" />
            <mxPoint x="4100" y="3720" as="targetPoint" />
          </mxGeometry>
        </mxCell>
        <mxCell id="oWYilS1HCCAZtfWQUwDj-117" value="" style="endArrow=none;html=1;rounded=0;exitX=0.5;exitY=0;exitDx=0;exitDy=0;entryX=0.25;entryY=1;entryDx=0;entryDy=0;" parent="1" source="oWYilS1HCCAZtfWQUwDj-110" target="oWYilS1HCCAZtfWQUwDj-2" edge="1">
          <mxGeometry relative="1" as="geometry">
            <mxPoint x="3940" y="3720" as="sourcePoint" />
            <mxPoint x="4100" y="3720" as="targetPoint" />
          </mxGeometry>
        </mxCell>
        <mxCell id="oWYilS1HCCAZtfWQUwDj-118" value="" style="endArrow=none;html=1;rounded=0;exitX=0.5;exitY=0;exitDx=0;exitDy=0;entryX=0.75;entryY=1;entryDx=0;entryDy=0;" parent="1" source="oWYilS1HCCAZtfWQUwDj-111" target="oWYilS1HCCAZtfWQUwDj-2" edge="1">
          <mxGeometry relative="1" as="geometry">
            <mxPoint x="3940" y="3720" as="sourcePoint" />
            <mxPoint x="4100" y="3720" as="targetPoint" />
          </mxGeometry>
        </mxCell>
        <mxCell id="oWYilS1HCCAZtfWQUwDj-119" value="" style="endArrow=none;html=1;rounded=0;exitX=0.5;exitY=0;exitDx=0;exitDy=0;entryX=1;entryY=1;entryDx=0;entryDy=0;" parent="1" source="oWYilS1HCCAZtfWQUwDj-112" target="oWYilS1HCCAZtfWQUwDj-2" edge="1">
          <mxGeometry relative="1" as="geometry">
            <mxPoint x="3940" y="3720" as="sourcePoint" />
            <mxPoint x="4100" y="3720" as="targetPoint" />
          </mxGeometry>
        </mxCell>
        <mxCell id="oWYilS1HCCAZtfWQUwDj-120" value="Room Number" style="ellipse;whiteSpace=wrap;html=1;align=center;" parent="1" vertex="1">
          <mxGeometry x="4160" y="4070" width="60" height="40" as="geometry" />
        </mxCell>
        <mxCell id="oWYilS1HCCAZtfWQUwDj-121" value="Building" style="ellipse;whiteSpace=wrap;html=1;align=center;" parent="1" vertex="1">
          <mxGeometry x="4095" y="4075" width="50" height="30" as="geometry" />
        </mxCell>
        <mxCell id="oWYilS1HCCAZtfWQUwDj-122" value="AssignmentID" style="ellipse;whiteSpace=wrap;html=1;align=center;" parent="1" vertex="1">
          <mxGeometry x="3990" y="4070" width="90" height="30" as="geometry" />
        </mxCell>
        <mxCell id="oWYilS1HCCAZtfWQUwDj-124" value="Head of Department" style="ellipse;whiteSpace=wrap;html=1;align=center;" parent="1" vertex="1">
          <mxGeometry x="4520" y="3780" width="80" height="40" as="geometry" />
        </mxCell>
        <mxCell id="oWYilS1HCCAZtfWQUwDj-125" value="Name" style="ellipse;whiteSpace=wrap;html=1;align=center;" parent="1" vertex="1">
          <mxGeometry x="4470" y="3785" width="40" height="25" as="geometry" />
        </mxCell>
        <mxCell id="oWYilS1HCCAZtfWQUwDj-126" value="DepartmentID" style="ellipse;whiteSpace=wrap;html=1;align=center;" parent="1" vertex="1">
          <mxGeometry x="4370" y="3780" width="90" height="30" as="geometry" />
        </mxCell>
        <mxCell id="oWYilS1HCCAZtfWQUwDj-127" value="Salary" style="ellipse;whiteSpace=wrap;html=1;align=center;" parent="1" vertex="1">
          <mxGeometry x="3930" y="3060" width="40" height="20" as="geometry" />
        </mxCell>
        <mxCell id="oWYilS1HCCAZtfWQUwDj-128" value="Subject" style="ellipse;whiteSpace=wrap;html=1;align=center;" parent="1" vertex="1">
          <mxGeometry x="3870" y="3060" width="50" height="20" as="geometry" />
        </mxCell>
        <mxCell id="oWYilS1HCCAZtfWQUwDj-129" value="Name" style="ellipse;whiteSpace=wrap;html=1;align=center;" parent="1" vertex="1">
          <mxGeometry x="3800" y="3060" width="40" height="20" as="geometry" />
        </mxCell>
        <mxCell id="oWYilS1HCCAZtfWQUwDj-130" value="TeacherID" style="ellipse;whiteSpace=wrap;html=1;align=center;" parent="1" vertex="1">
          <mxGeometry x="3720" y="3060" width="70" height="20" as="geometry" />
        </mxCell>
        <mxCell id="oWYilS1HCCAZtfWQUwDj-131" value="AttendanceID" style="ellipse;whiteSpace=wrap;html=1;align=center;" parent="1" vertex="1">
          <mxGeometry x="3190" y="4000" width="80" height="30" as="geometry" />
        </mxCell>
        <mxCell id="oWYilS1HCCAZtfWQUwDj-132" value="Comments" style="ellipse;whiteSpace=wrap;html=1;align=center;" parent="1" vertex="1">
          <mxGeometry x="3440" y="4005" width="70" height="22.5" as="geometry" />
        </mxCell>
        <mxCell id="oWYilS1HCCAZtfWQUwDj-133" value="Status" style="ellipse;whiteSpace=wrap;html=1;align=center;" parent="1" vertex="1">
          <mxGeometry x="3370" y="4008.75" width="50" height="17.5" as="geometry" />
        </mxCell>
        <mxCell id="oWYilS1HCCAZtfWQUwDj-134" value="Date" style="ellipse;whiteSpace=wrap;html=1;align=center;" parent="1" vertex="1">
          <mxGeometry x="3290" y="4005" width="40" height="25" as="geometry" />
        </mxCell>
        <mxCell id="oWYilS1HCCAZtfWQUwDj-136" value="GPA" style="ellipse;whiteSpace=wrap;html=1;align=center;" parent="1" vertex="1">
          <mxGeometry x="3310" y="3300" width="30" height="30" as="geometry" />
        </mxCell>
        <mxCell id="oWYilS1HCCAZtfWQUwDj-137" value="Comments" style="ellipse;whiteSpace=wrap;html=1;align=center;" parent="1" vertex="1">
          <mxGeometry x="3430" y="3300" width="70" height="30" as="geometry" />
        </mxCell>
        <mxCell id="oWYilS1HCCAZtfWQUwDj-138" value="Semester" style="ellipse;whiteSpace=wrap;html=1;align=center;" parent="1" vertex="1">
          <mxGeometry x="3350" y="3300" width="62.5" height="30" as="geometry" />
        </mxCell>
        <mxCell id="oWYilS1HCCAZtfWQUwDj-139" value="Assigned Staff" style="ellipse;whiteSpace=wrap;html=1;align=center;" parent="1" vertex="1">
          <mxGeometry x="2510" y="2830" width="60" height="40" as="geometry" />
        </mxCell>
        <mxCell id="oWYilS1HCCAZtfWQUwDj-140" value="Schedule" style="ellipse;whiteSpace=wrap;html=1;align=center;" parent="1" vertex="1">
          <mxGeometry x="2430" y="2840" width="60" height="20" as="geometry" />
        </mxCell>
        <mxCell id="oWYilS1HCCAZtfWQUwDj-141" value="Name" style="ellipse;whiteSpace=wrap;html=1;align=center;" parent="1" vertex="1">
          <mxGeometry x="2370" y="2840" width="40" height="20" as="geometry" />
        </mxCell>
        <mxCell id="oWYilS1HCCAZtfWQUwDj-142" value="ActivityID" style="ellipse;whiteSpace=wrap;html=1;align=center;" parent="1" vertex="1">
          <mxGeometry x="2290" y="2830" width="60" height="30" as="geometry" />
        </mxCell>
        <mxCell id="oWYilS1HCCAZtfWQUwDj-144" value="" style="endArrow=none;html=1;rounded=0;exitX=0.25;exitY=1;exitDx=0;exitDy=0;entryX=0.5;entryY=0;entryDx=0;entryDy=0;" parent="1" source="oWYilS1HCCAZtfWQUwDj-36" target="oWYilS1HCCAZtfWQUwDj-106" edge="1">
          <mxGeometry relative="1" as="geometry">
            <mxPoint x="3360" y="3800" as="sourcePoint" />
            <mxPoint x="3520" y="3800" as="targetPoint" />
          </mxGeometry>
        </mxCell>
        <mxCell id="oWYilS1HCCAZtfWQUwDj-145" value="" style="endArrow=none;html=1;rounded=0;exitX=0.75;exitY=1;exitDx=0;exitDy=0;entryX=0.5;entryY=0;entryDx=0;entryDy=0;" parent="1" source="oWYilS1HCCAZtfWQUwDj-36" target="oWYilS1HCCAZtfWQUwDj-107" edge="1">
          <mxGeometry relative="1" as="geometry">
            <mxPoint x="3360" y="3800" as="sourcePoint" />
            <mxPoint x="3520" y="3800" as="targetPoint" />
          </mxGeometry>
        </mxCell>
        <mxCell id="oWYilS1HCCAZtfWQUwDj-146" value="" style="endArrow=none;html=1;rounded=0;exitX=0.5;exitY=1;exitDx=0;exitDy=0;entryX=0.25;entryY=0;entryDx=0;entryDy=0;" parent="1" source="oWYilS1HCCAZtfWQUwDj-136" target="oWYilS1HCCAZtfWQUwDj-13" edge="1">
          <mxGeometry relative="1" as="geometry">
            <mxPoint x="3360" y="3490" as="sourcePoint" />
            <mxPoint x="3520" y="3490" as="targetPoint" />
          </mxGeometry>
        </mxCell>
        <mxCell id="oWYilS1HCCAZtfWQUwDj-147" value="" style="endArrow=none;html=1;rounded=0;exitX=0.5;exitY=1;exitDx=0;exitDy=0;entryX=0.75;entryY=0;entryDx=0;entryDy=0;" parent="1" source="oWYilS1HCCAZtfWQUwDj-138" target="oWYilS1HCCAZtfWQUwDj-13" edge="1">
          <mxGeometry relative="1" as="geometry">
            <mxPoint x="3360" y="3490" as="sourcePoint" />
            <mxPoint x="3520" y="3490" as="targetPoint" />
          </mxGeometry>
        </mxCell>
        <mxCell id="oWYilS1HCCAZtfWQUwDj-148" value="" style="endArrow=none;html=1;rounded=0;exitX=0.5;exitY=1;exitDx=0;exitDy=0;entryX=1;entryY=0;entryDx=0;entryDy=0;" parent="1" source="oWYilS1HCCAZtfWQUwDj-137" target="oWYilS1HCCAZtfWQUwDj-13" edge="1">
          <mxGeometry relative="1" as="geometry">
            <mxPoint x="3360" y="3490" as="sourcePoint" />
            <mxPoint x="3520" y="3490" as="targetPoint" />
          </mxGeometry>
        </mxCell>
        <mxCell id="oWYilS1HCCAZtfWQUwDj-149" value="" style="endArrow=none;html=1;rounded=0;exitX=0;exitY=1;exitDx=0;exitDy=0;entryX=0.5;entryY=0;entryDx=0;entryDy=0;" parent="1" source="oWYilS1HCCAZtfWQUwDj-3" target="oWYilS1HCCAZtfWQUwDj-130" edge="1">
          <mxGeometry relative="1" as="geometry">
            <mxPoint x="3770" y="3060" as="sourcePoint" />
            <mxPoint x="3930" y="3060" as="targetPoint" />
          </mxGeometry>
        </mxCell>
        <mxCell id="oWYilS1HCCAZtfWQUwDj-150" value="" style="endArrow=none;html=1;rounded=0;exitX=0.25;exitY=1;exitDx=0;exitDy=0;entryX=0.5;entryY=0;entryDx=0;entryDy=0;" parent="1" source="oWYilS1HCCAZtfWQUwDj-3" target="oWYilS1HCCAZtfWQUwDj-129" edge="1">
          <mxGeometry relative="1" as="geometry">
            <mxPoint x="3770" y="3060" as="sourcePoint" />
            <mxPoint x="3930" y="3060" as="targetPoint" />
          </mxGeometry>
        </mxCell>
        <mxCell id="oWYilS1HCCAZtfWQUwDj-151" value="" style="endArrow=none;html=1;rounded=0;exitX=0.75;exitY=1;exitDx=0;exitDy=0;entryX=0.5;entryY=0;entryDx=0;entryDy=0;" parent="1" source="oWYilS1HCCAZtfWQUwDj-3" target="oWYilS1HCCAZtfWQUwDj-128" edge="1">
          <mxGeometry relative="1" as="geometry">
            <mxPoint x="3770" y="3060" as="sourcePoint" />
            <mxPoint x="3930" y="3060" as="targetPoint" />
          </mxGeometry>
        </mxCell>
        <mxCell id="oWYilS1HCCAZtfWQUwDj-152" value="" style="endArrow=none;html=1;rounded=0;exitX=1;exitY=1;exitDx=0;exitDy=0;entryX=0.5;entryY=0;entryDx=0;entryDy=0;" parent="1" source="oWYilS1HCCAZtfWQUwDj-3" target="oWYilS1HCCAZtfWQUwDj-127" edge="1">
          <mxGeometry relative="1" as="geometry">
            <mxPoint x="3770" y="3060" as="sourcePoint" />
            <mxPoint x="3930" y="3060" as="targetPoint" />
          </mxGeometry>
        </mxCell>
        <mxCell id="oWYilS1HCCAZtfWQUwDj-153" value="" style="endArrow=none;html=1;rounded=0;exitX=0.5;exitY=1;exitDx=0;exitDy=0;entryX=0;entryY=0;entryDx=0;entryDy=0;" parent="1" source="oWYilS1HCCAZtfWQUwDj-142" target="oWYilS1HCCAZtfWQUwDj-10" edge="1">
          <mxGeometry relative="1" as="geometry">
            <mxPoint x="2360" y="2840" as="sourcePoint" />
            <mxPoint x="2520" y="2840" as="targetPoint" />
          </mxGeometry>
        </mxCell>
        <mxCell id="oWYilS1HCCAZtfWQUwDj-154" value="" style="endArrow=none;html=1;rounded=0;exitX=0.5;exitY=1;exitDx=0;exitDy=0;entryX=0.25;entryY=0;entryDx=0;entryDy=0;" parent="1" source="oWYilS1HCCAZtfWQUwDj-141" target="oWYilS1HCCAZtfWQUwDj-10" edge="1">
          <mxGeometry relative="1" as="geometry">
            <mxPoint x="2390" y="2860" as="sourcePoint" />
            <mxPoint x="2520" y="2840" as="targetPoint" />
          </mxGeometry>
        </mxCell>
        <mxCell id="oWYilS1HCCAZtfWQUwDj-155" value="" style="endArrow=none;html=1;rounded=0;exitX=0.75;exitY=0;exitDx=0;exitDy=0;entryX=0.5;entryY=1;entryDx=0;entryDy=0;" parent="1" source="oWYilS1HCCAZtfWQUwDj-10" target="oWYilS1HCCAZtfWQUwDj-140" edge="1">
          <mxGeometry relative="1" as="geometry">
            <mxPoint x="2460" y="2860" as="sourcePoint" />
            <mxPoint x="2520" y="2840" as="targetPoint" />
          </mxGeometry>
        </mxCell>
        <mxCell id="oWYilS1HCCAZtfWQUwDj-156" value="" style="endArrow=none;html=1;rounded=0;exitX=1;exitY=0;exitDx=0;exitDy=0;entryX=0.5;entryY=1;entryDx=0;entryDy=0;" parent="1" source="oWYilS1HCCAZtfWQUwDj-10" target="oWYilS1HCCAZtfWQUwDj-139" edge="1">
          <mxGeometry relative="1" as="geometry">
            <mxPoint x="2360" y="2840" as="sourcePoint" />
            <mxPoint x="2520" y="2840" as="targetPoint" />
          </mxGeometry>
        </mxCell>
        <mxCell id="oWYilS1HCCAZtfWQUwDj-157" value="" style="endArrow=none;html=1;rounded=0;exitX=0.5;exitY=0;exitDx=0;exitDy=0;entryX=0.25;entryY=1;entryDx=0;entryDy=0;" parent="1" source="oWYilS1HCCAZtfWQUwDj-122" target="oWYilS1HCCAZtfWQUwDj-15" edge="1">
          <mxGeometry relative="1" as="geometry">
            <mxPoint x="4030" y="4060" as="sourcePoint" />
            <mxPoint x="4190" y="4060" as="targetPoint" />
          </mxGeometry>
        </mxCell>
        <mxCell id="oWYilS1HCCAZtfWQUwDj-158" value="" style="endArrow=none;html=1;rounded=0;exitX=0.5;exitY=0;exitDx=0;exitDy=0;entryX=0.5;entryY=1;entryDx=0;entryDy=0;" parent="1" source="oWYilS1HCCAZtfWQUwDj-121" target="oWYilS1HCCAZtfWQUwDj-15" edge="1">
          <mxGeometry relative="1" as="geometry">
            <mxPoint x="4030" y="4060" as="sourcePoint" />
            <mxPoint x="4190" y="4060" as="targetPoint" />
          </mxGeometry>
        </mxCell>
        <mxCell id="oWYilS1HCCAZtfWQUwDj-159" value="" style="endArrow=none;html=1;rounded=0;exitX=0.75;exitY=1;exitDx=0;exitDy=0;entryX=0.5;entryY=0;entryDx=0;entryDy=0;" parent="1" source="oWYilS1HCCAZtfWQUwDj-15" target="oWYilS1HCCAZtfWQUwDj-120" edge="1">
          <mxGeometry relative="1" as="geometry">
            <mxPoint x="4030" y="4060" as="sourcePoint" />
            <mxPoint x="4190" y="4060" as="targetPoint" />
          </mxGeometry>
        </mxCell>
        <mxCell id="oWYilS1HCCAZtfWQUwDj-160" value="" style="endArrow=none;html=1;rounded=0;entryX=0.5;entryY=0;entryDx=0;entryDy=0;exitX=0.25;exitY=1;exitDx=0;exitDy=0;" parent="1" source="oWYilS1HCCAZtfWQUwDj-5" target="oWYilS1HCCAZtfWQUwDj-126" edge="1">
          <mxGeometry relative="1" as="geometry">
            <mxPoint x="4310" y="3730" as="sourcePoint" />
            <mxPoint x="4470" y="3730" as="targetPoint" />
          </mxGeometry>
        </mxCell>
        <mxCell id="oWYilS1HCCAZtfWQUwDj-161" value="" style="endArrow=none;html=1;rounded=0;entryX=0.5;entryY=0;entryDx=0;entryDy=0;exitX=0.5;exitY=1;exitDx=0;exitDy=0;" parent="1" source="oWYilS1HCCAZtfWQUwDj-5" target="oWYilS1HCCAZtfWQUwDj-125" edge="1">
          <mxGeometry relative="1" as="geometry">
            <mxPoint x="4310" y="3730" as="sourcePoint" />
            <mxPoint x="4470" y="3730" as="targetPoint" />
          </mxGeometry>
        </mxCell>
        <mxCell id="oWYilS1HCCAZtfWQUwDj-162" value="" style="endArrow=none;html=1;rounded=0;entryX=0.5;entryY=0;entryDx=0;entryDy=0;exitX=0.75;exitY=1;exitDx=0;exitDy=0;" parent="1" source="oWYilS1HCCAZtfWQUwDj-5" target="oWYilS1HCCAZtfWQUwDj-124" edge="1">
          <mxGeometry relative="1" as="geometry">
            <mxPoint x="4310" y="3730" as="sourcePoint" />
            <mxPoint x="4470" y="3730" as="targetPoint" />
          </mxGeometry>
        </mxCell>
        <mxCell id="oWYilS1HCCAZtfWQUwDj-163" value="" style="edgeStyle=orthogonalEdgeStyle;orthogonalLoop=1;jettySize=auto;html=1;rounded=0;endArrow=none;endFill=0;entryX=0;entryY=0.75;entryDx=0;entryDy=0;exitX=0.5;exitY=0;exitDx=0;exitDy=0;" parent="1" source="oWYilS1HCCAZtfWQUwDj-170" target="oWYilS1HCCAZtfWQUwDj-3" edge="1">
          <mxGeometry width="80" relative="1" as="geometry">
            <mxPoint x="3370" y="2860" as="sourcePoint" />
            <mxPoint x="3670" y="2750" as="targetPoint" />
            <Array as="points">
              <mxPoint x="3690" y="3010" />
            </Array>
          </mxGeometry>
        </mxCell>
        <mxCell id="oWYilS1HCCAZtfWQUwDj-171" value="" style="edgeStyle=orthogonalEdgeStyle;orthogonalLoop=1;jettySize=auto;html=1;rounded=0;endArrow=none;endFill=0;entryX=0.5;entryY=1;entryDx=0;entryDy=0;exitX=0.75;exitY=0;exitDx=0;exitDy=0;" parent="1" source="oWYilS1HCCAZtfWQUwDj-36" target="oWYilS1HCCAZtfWQUwDj-170" edge="1">
          <mxGeometry width="80" relative="1" as="geometry">
            <mxPoint x="3375" y="3680" as="sourcePoint" />
            <mxPoint x="3810" y="2740" as="targetPoint" />
            <Array as="points">
              <mxPoint x="3375" y="3550" />
              <mxPoint x="3690" y="3550" />
            </Array>
          </mxGeometry>
        </mxCell>
        <mxCell id="oWYilS1HCCAZtfWQUwDj-170" value="Updates" style="shape=rhombus;perimeter=rhombusPerimeter;whiteSpace=wrap;html=1;align=center;fillColor=#fff2cc;strokeColor=#d6b656;" parent="1" vertex="1">
          <mxGeometry x="3630" y="3390" width="120" height="60" as="geometry" />
        </mxCell>
        <mxCell id="oWYilS1HCCAZtfWQUwDj-172" value="" style="edgeStyle=entityRelationEdgeStyle;fontSize=12;html=1;endArrow=ERoneToMany;rounded=0;exitX=1;exitY=0.5;exitDx=0;exitDy=0;entryX=0;entryY=0.5;entryDx=0;entryDy=0;" parent="1" source="oWYilS1HCCAZtfWQUwDj-1" target="oWYilS1HCCAZtfWQUwDj-36" edge="1">
          <mxGeometry width="100" height="100" relative="1" as="geometry">
            <mxPoint x="2950" y="3740" as="sourcePoint" />
            <mxPoint x="3050" y="3640" as="targetPoint" />
          </mxGeometry>
        </mxCell>
        <mxCell id="oWYilS1HCCAZtfWQUwDj-175" value="" style="edgeStyle=entityRelationEdgeStyle;fontSize=12;html=1;endArrow=none;startArrow=ERoneToMany;rounded=0;endFill=0;entryX=0;entryY=0.5;entryDx=0;entryDy=0;" parent="1" target="oWYilS1HCCAZtfWQUwDj-2" edge="1">
          <mxGeometry width="100" height="100" relative="1" as="geometry">
            <mxPoint x="3410" y="3709.77" as="sourcePoint" />
            <mxPoint x="3580" y="3709.77" as="targetPoint" />
          </mxGeometry>
        </mxCell>
        <mxCell id="oWYilS1HCCAZtfWQUwDj-181" value="" style="endArrow=none;html=1;rounded=0;exitX=0.5;exitY=0;exitDx=0;exitDy=0;entryX=0;entryY=1;entryDx=0;entryDy=0;" parent="1" source="oWYilS1HCCAZtfWQUwDj-131" target="oWYilS1HCCAZtfWQUwDj-12" edge="1">
          <mxGeometry relative="1" as="geometry">
            <mxPoint x="3300" y="3960" as="sourcePoint" />
            <mxPoint x="3460" y="3960" as="targetPoint" />
          </mxGeometry>
        </mxCell>
        <mxCell id="oWYilS1HCCAZtfWQUwDj-182" value="" style="endArrow=none;html=1;rounded=0;exitX=0.5;exitY=0;exitDx=0;exitDy=0;entryX=0.25;entryY=1;entryDx=0;entryDy=0;" parent="1" source="oWYilS1HCCAZtfWQUwDj-134" target="oWYilS1HCCAZtfWQUwDj-12" edge="1">
          <mxGeometry relative="1" as="geometry">
            <mxPoint x="3300" y="3960" as="sourcePoint" />
            <mxPoint x="3460" y="3960" as="targetPoint" />
          </mxGeometry>
        </mxCell>
        <mxCell id="oWYilS1HCCAZtfWQUwDj-183" value="" style="endArrow=none;html=1;rounded=0;exitX=0.5;exitY=0;exitDx=0;exitDy=0;entryX=0.75;entryY=1;entryDx=0;entryDy=0;" parent="1" source="oWYilS1HCCAZtfWQUwDj-133" target="oWYilS1HCCAZtfWQUwDj-12" edge="1">
          <mxGeometry relative="1" as="geometry">
            <mxPoint x="3300" y="3960" as="sourcePoint" />
            <mxPoint x="3460" y="3960" as="targetPoint" />
          </mxGeometry>
        </mxCell>
        <mxCell id="oWYilS1HCCAZtfWQUwDj-184" value="" style="endArrow=none;html=1;rounded=0;exitX=1;exitY=1;exitDx=0;exitDy=0;entryX=0.5;entryY=0;entryDx=0;entryDy=0;" parent="1" source="oWYilS1HCCAZtfWQUwDj-12" target="oWYilS1HCCAZtfWQUwDj-132" edge="1">
          <mxGeometry relative="1" as="geometry">
            <mxPoint x="3300" y="3960" as="sourcePoint" />
            <mxPoint x="3460" y="3960" as="targetPoint" />
          </mxGeometry>
        </mxCell>
        <mxCell id="oWYilS1HCCAZtfWQUwDj-187" value="" style="edgeStyle=entityRelationEdgeStyle;fontSize=12;html=1;endArrow=none;startArrow=ERoneToMany;rounded=0;exitX=1;exitY=0.5;exitDx=0;exitDy=0;entryX=0;entryY=0.5;entryDx=0;entryDy=0;endFill=0;startFill=0;" parent="1" source="oWYilS1HCCAZtfWQUwDj-26" target="oWYilS1HCCAZtfWQUwDj-1" edge="1">
          <mxGeometry width="100" height="100" relative="1" as="geometry">
            <mxPoint x="2420" y="3490" as="sourcePoint" />
            <mxPoint x="2520" y="3390" as="targetPoint" />
          </mxGeometry>
        </mxCell>
        <mxCell id="oWYilS1HCCAZtfWQUwDj-188" value="" style="fontSize=12;html=1;endArrow=none;rounded=0;exitX=0.5;exitY=0;exitDx=0;exitDy=0;entryX=0.5;entryY=1;entryDx=0;entryDy=0;endFill=0;startArrow=ERoneToMany;startFill=0;" parent="1" source="oWYilS1HCCAZtfWQUwDj-26" target="oWYilS1HCCAZtfWQUwDj-9" edge="1">
          <mxGeometry width="100" height="100" relative="1" as="geometry">
            <mxPoint x="2510" y="3490" as="sourcePoint" />
            <mxPoint x="2610" y="3390" as="targetPoint" />
          </mxGeometry>
        </mxCell>
        <mxCell id="oWYilS1HCCAZtfWQUwDj-189" value="ScheduleID" style="ellipse;whiteSpace=wrap;html=1;align=center;" parent="1" vertex="1">
          <mxGeometry x="4370" y="2910" width="70" height="40" as="geometry" />
        </mxCell>
        <mxCell id="oWYilS1HCCAZtfWQUwDj-191" value="Time" style="ellipse;whiteSpace=wrap;html=1;align=center;" parent="1" vertex="1">
          <mxGeometry x="4540" y="2910" width="40" height="40" as="geometry" />
        </mxCell>
        <mxCell id="oWYilS1HCCAZtfWQUwDj-193" value="" style="endArrow=none;html=1;rounded=0;exitX=0.5;exitY=1;exitDx=0;exitDy=0;entryX=0.25;entryY=0;entryDx=0;entryDy=0;" parent="1" source="oWYilS1HCCAZtfWQUwDj-189" target="oWYilS1HCCAZtfWQUwDj-6" edge="1">
          <mxGeometry relative="1" as="geometry">
            <mxPoint x="4310" y="2940" as="sourcePoint" />
            <mxPoint x="4470" y="2940" as="targetPoint" />
          </mxGeometry>
        </mxCell>
        <mxCell id="oWYilS1HCCAZtfWQUwDj-195" value="" style="endArrow=none;html=1;rounded=0;entryX=0.5;entryY=1;entryDx=0;entryDy=0;exitX=0.75;exitY=0;exitDx=0;exitDy=0;" parent="1" source="oWYilS1HCCAZtfWQUwDj-6" target="oWYilS1HCCAZtfWQUwDj-191" edge="1">
          <mxGeometry relative="1" as="geometry">
            <mxPoint x="4310" y="2940" as="sourcePoint" />
            <mxPoint x="4470" y="2940" as="targetPoint" />
          </mxGeometry>
        </mxCell>
        <mxCell id="oWYilS1HCCAZtfWQUwDj-196" value="Quantity" style="ellipse;whiteSpace=wrap;html=1;align=center;" parent="1" vertex="1">
          <mxGeometry x="4190" y="3305" width="60" height="30" as="geometry" />
        </mxCell>
        <mxCell id="oWYilS1HCCAZtfWQUwDj-197" value="Type" style="ellipse;whiteSpace=wrap;html=1;align=center;" parent="1" vertex="1">
          <mxGeometry x="4140" y="3305" width="40" height="30" as="geometry" />
        </mxCell>
        <mxCell id="oWYilS1HCCAZtfWQUwDj-198" value="Name" style="ellipse;whiteSpace=wrap;html=1;align=center;" parent="1" vertex="1">
          <mxGeometry x="4070" y="3310" width="40" height="20" as="geometry" />
        </mxCell>
        <mxCell id="oWYilS1HCCAZtfWQUwDj-199" value="ResourceID" style="ellipse;whiteSpace=wrap;html=1;align=center;" parent="1" vertex="1">
          <mxGeometry x="3990" y="3300" width="70" height="30" as="geometry" />
        </mxCell>
        <mxCell id="oWYilS1HCCAZtfWQUwDj-200" value="" style="endArrow=none;html=1;rounded=0;exitX=0.5;exitY=1;exitDx=0;exitDy=0;entryX=0;entryY=0;entryDx=0;entryDy=0;" parent="1" source="oWYilS1HCCAZtfWQUwDj-199" target="oWYilS1HCCAZtfWQUwDj-11" edge="1">
          <mxGeometry relative="1" as="geometry">
            <mxPoint x="4000" y="3390" as="sourcePoint" />
            <mxPoint x="4160" y="3390" as="targetPoint" />
          </mxGeometry>
        </mxCell>
        <mxCell id="oWYilS1HCCAZtfWQUwDj-201" value="" style="endArrow=none;html=1;rounded=0;exitX=0.5;exitY=1;exitDx=0;exitDy=0;entryX=0.25;entryY=0;entryDx=0;entryDy=0;" parent="1" source="oWYilS1HCCAZtfWQUwDj-198" target="oWYilS1HCCAZtfWQUwDj-11" edge="1">
          <mxGeometry relative="1" as="geometry">
            <mxPoint x="4000" y="3390" as="sourcePoint" />
            <mxPoint x="4160" y="3390" as="targetPoint" />
          </mxGeometry>
        </mxCell>
        <mxCell id="oWYilS1HCCAZtfWQUwDj-202" value="" style="endArrow=none;html=1;rounded=0;entryX=0.5;entryY=1;entryDx=0;entryDy=0;exitX=0.75;exitY=0;exitDx=0;exitDy=0;" parent="1" source="oWYilS1HCCAZtfWQUwDj-11" target="oWYilS1HCCAZtfWQUwDj-197" edge="1">
          <mxGeometry relative="1" as="geometry">
            <mxPoint x="4000" y="3390" as="sourcePoint" />
            <mxPoint x="4160" y="3390" as="targetPoint" />
          </mxGeometry>
        </mxCell>
        <mxCell id="oWYilS1HCCAZtfWQUwDj-203" value="" style="endArrow=none;html=1;rounded=0;entryX=0.5;entryY=1;entryDx=0;entryDy=0;exitX=1;exitY=0;exitDx=0;exitDy=0;" parent="1" source="oWYilS1HCCAZtfWQUwDj-11" target="oWYilS1HCCAZtfWQUwDj-196" edge="1">
          <mxGeometry relative="1" as="geometry">
            <mxPoint x="4000" y="3390" as="sourcePoint" />
            <mxPoint x="4160" y="3390" as="targetPoint" />
          </mxGeometry>
        </mxCell>
        <mxCell id="oWYilS1HCCAZtfWQUwDj-205" value="RRID" style="ellipse;whiteSpace=wrap;html=1;align=center;" parent="1" vertex="1">
          <mxGeometry x="4390" y="3100" width="40" height="20" as="geometry" />
        </mxCell>
        <mxCell id="oWYilS1HCCAZtfWQUwDj-206" value="Date" style="ellipse;whiteSpace=wrap;html=1;align=center;" parent="1" vertex="1">
          <mxGeometry x="4450" y="3100" width="30" height="20" as="geometry" />
        </mxCell>
        <mxCell id="oWYilS1HCCAZtfWQUwDj-207" value="Source" style="ellipse;whiteSpace=wrap;html=1;align=center;" parent="1" vertex="1">
          <mxGeometry x="4490" y="3100" width="50" height="20" as="geometry" />
        </mxCell>
        <mxCell id="oWYilS1HCCAZtfWQUwDj-208" value="Payment Method" style="ellipse;whiteSpace=wrap;html=1;align=center;" parent="1" vertex="1">
          <mxGeometry x="4550" y="3095" width="100" height="30" as="geometry" />
        </mxCell>
        <mxCell id="oWYilS1HCCAZtfWQUwDj-210" value="" style="endArrow=none;html=1;rounded=0;entryX=0;entryY=0;entryDx=0;entryDy=0;exitX=0.5;exitY=1;exitDx=0;exitDy=0;" parent="1" source="oWYilS1HCCAZtfWQUwDj-205" target="oWYilS1HCCAZtfWQUwDj-7" edge="1">
          <mxGeometry relative="1" as="geometry">
            <mxPoint x="4310" y="3110" as="sourcePoint" />
            <mxPoint x="4470" y="3110" as="targetPoint" />
          </mxGeometry>
        </mxCell>
        <mxCell id="oWYilS1HCCAZtfWQUwDj-211" value="" style="endArrow=none;html=1;rounded=0;entryX=0.25;entryY=0;entryDx=0;entryDy=0;exitX=0.5;exitY=1;exitDx=0;exitDy=0;" parent="1" source="oWYilS1HCCAZtfWQUwDj-206" target="oWYilS1HCCAZtfWQUwDj-7" edge="1">
          <mxGeometry relative="1" as="geometry">
            <mxPoint x="4310" y="3110" as="sourcePoint" />
            <mxPoint x="4470" y="3110" as="targetPoint" />
          </mxGeometry>
        </mxCell>
        <mxCell id="oWYilS1HCCAZtfWQUwDj-212" value="" style="endArrow=none;html=1;rounded=0;entryX=0.75;entryY=0;entryDx=0;entryDy=0;exitX=0.5;exitY=1;exitDx=0;exitDy=0;" parent="1" source="oWYilS1HCCAZtfWQUwDj-207" target="oWYilS1HCCAZtfWQUwDj-7" edge="1">
          <mxGeometry relative="1" as="geometry">
            <mxPoint x="4310" y="3110" as="sourcePoint" />
            <mxPoint x="4470" y="3110" as="targetPoint" />
          </mxGeometry>
        </mxCell>
        <mxCell id="oWYilS1HCCAZtfWQUwDj-213" value="" style="endArrow=none;html=1;rounded=0;entryX=1;entryY=0;entryDx=0;entryDy=0;exitX=0.5;exitY=1;exitDx=0;exitDy=0;" parent="1" source="oWYilS1HCCAZtfWQUwDj-208" target="oWYilS1HCCAZtfWQUwDj-7" edge="1">
          <mxGeometry relative="1" as="geometry">
            <mxPoint x="4310" y="3110" as="sourcePoint" />
            <mxPoint x="4470" y="3110" as="targetPoint" />
          </mxGeometry>
        </mxCell>
        <mxCell id="oWYilS1HCCAZtfWQUwDj-214" value="Consequence" style="ellipse;whiteSpace=wrap;html=1;align=center;" parent="1" vertex="1">
          <mxGeometry x="3060" y="3465" width="80" height="30" as="geometry" />
        </mxCell>
        <mxCell id="oWYilS1HCCAZtfWQUwDj-215" value="Action" style="ellipse;whiteSpace=wrap;html=1;align=center;" parent="1" vertex="1">
          <mxGeometry x="2995" y="3470" width="50" height="20" as="geometry" />
        </mxCell>
        <mxCell id="oWYilS1HCCAZtfWQUwDj-216" value="DAID" style="ellipse;whiteSpace=wrap;html=1;align=center;" parent="1" vertex="1">
          <mxGeometry x="2940" y="3470" width="40" height="20" as="geometry" />
        </mxCell>
        <mxCell id="oWYilS1HCCAZtfWQUwDj-218" value="" style="endArrow=none;html=1;rounded=0;entryX=0.25;entryY=0;entryDx=0;entryDy=0;exitX=0.5;exitY=1;exitDx=0;exitDy=0;" parent="1" source="oWYilS1HCCAZtfWQUwDj-216" target="oWYilS1HCCAZtfWQUwDj-14" edge="1">
          <mxGeometry relative="1" as="geometry">
            <mxPoint x="3000" y="3390" as="sourcePoint" />
            <mxPoint x="3160" y="3390" as="targetPoint" />
          </mxGeometry>
        </mxCell>
        <mxCell id="oWYilS1HCCAZtfWQUwDj-219" value="" style="endArrow=none;html=1;rounded=0;entryX=0.5;entryY=0;entryDx=0;entryDy=0;exitX=0.5;exitY=1;exitDx=0;exitDy=0;" parent="1" source="oWYilS1HCCAZtfWQUwDj-215" target="oWYilS1HCCAZtfWQUwDj-14" edge="1">
          <mxGeometry relative="1" as="geometry">
            <mxPoint x="3000" y="3390" as="sourcePoint" />
            <mxPoint x="3160" y="3390" as="targetPoint" />
          </mxGeometry>
        </mxCell>
        <mxCell id="oWYilS1HCCAZtfWQUwDj-220" value="" style="endArrow=none;html=1;rounded=0;entryX=1;entryY=0;entryDx=0;entryDy=0;exitX=0.5;exitY=1;exitDx=0;exitDy=0;" parent="1" source="oWYilS1HCCAZtfWQUwDj-214" target="oWYilS1HCCAZtfWQUwDj-14" edge="1">
          <mxGeometry relative="1" as="geometry">
            <mxPoint x="3000" y="3390" as="sourcePoint" />
            <mxPoint x="3160" y="3390" as="targetPoint" />
          </mxGeometry>
        </mxCell>
        <mxCell id="oWYilS1HCCAZtfWQUwDj-222" value="Occupation" style="ellipse;whiteSpace=wrap;html=1;align=center;" parent="1" vertex="1">
          <mxGeometry x="2582.5" y="3260" width="65" height="30" as="geometry" />
        </mxCell>
        <mxCell id="oWYilS1HCCAZtfWQUwDj-223" value="Phone" style="ellipse;whiteSpace=wrap;html=1;align=center;" parent="1" vertex="1">
          <mxGeometry x="2592.5" y="3210" width="45" height="30" as="geometry" />
        </mxCell>
        <mxCell id="oWYilS1HCCAZtfWQUwDj-224" value="Name" style="ellipse;whiteSpace=wrap;html=1;align=center;" parent="1" vertex="1">
          <mxGeometry x="2595" y="3160" width="40" height="30" as="geometry" />
        </mxCell>
        <mxCell id="oWYilS1HCCAZtfWQUwDj-225" value="ParentID" style="ellipse;whiteSpace=wrap;html=1;align=center;" parent="1" vertex="1">
          <mxGeometry x="2570" y="3110" width="60" height="30" as="geometry" />
        </mxCell>
        <mxCell id="oWYilS1HCCAZtfWQUwDj-226" value="" style="endArrow=none;html=1;rounded=0;exitX=1;exitY=0.5;exitDx=0;exitDy=0;entryX=0;entryY=0;entryDx=0;entryDy=0;" parent="1" source="oWYilS1HCCAZtfWQUwDj-225" target="oWYilS1HCCAZtfWQUwDj-29" edge="1">
          <mxGeometry relative="1" as="geometry">
            <mxPoint x="2760" y="3180" as="sourcePoint" />
            <mxPoint x="2920" y="3180" as="targetPoint" />
          </mxGeometry>
        </mxCell>
        <mxCell id="oWYilS1HCCAZtfWQUwDj-227" value="" style="endArrow=none;html=1;rounded=0;exitX=1;exitY=0.5;exitDx=0;exitDy=0;entryX=0;entryY=0.25;entryDx=0;entryDy=0;" parent="1" source="oWYilS1HCCAZtfWQUwDj-224" target="oWYilS1HCCAZtfWQUwDj-29" edge="1">
          <mxGeometry relative="1" as="geometry">
            <mxPoint x="2760" y="3180" as="sourcePoint" />
            <mxPoint x="2920" y="3180" as="targetPoint" />
          </mxGeometry>
        </mxCell>
        <mxCell id="oWYilS1HCCAZtfWQUwDj-228" value="" style="endArrow=none;html=1;rounded=0;exitX=1;exitY=0.5;exitDx=0;exitDy=0;entryX=0;entryY=0.75;entryDx=0;entryDy=0;" parent="1" source="oWYilS1HCCAZtfWQUwDj-223" target="oWYilS1HCCAZtfWQUwDj-29" edge="1">
          <mxGeometry relative="1" as="geometry">
            <mxPoint x="2760" y="3180" as="sourcePoint" />
            <mxPoint x="2920" y="3180" as="targetPoint" />
          </mxGeometry>
        </mxCell>
        <mxCell id="oWYilS1HCCAZtfWQUwDj-229" value="" style="endArrow=none;html=1;rounded=0;exitX=1;exitY=0.5;exitDx=0;exitDy=0;entryX=0;entryY=1;entryDx=0;entryDy=0;" parent="1" source="oWYilS1HCCAZtfWQUwDj-222" target="oWYilS1HCCAZtfWQUwDj-29" edge="1">
          <mxGeometry relative="1" as="geometry">
            <mxPoint x="2760" y="3180" as="sourcePoint" />
            <mxPoint x="2920" y="3180" as="targetPoint" />
          </mxGeometry>
        </mxCell>
        <mxCell id="oWYilS1HCCAZtfWQUwDj-230" value="PRID" style="ellipse;whiteSpace=wrap;html=1;align=center;" parent="1" vertex="1">
          <mxGeometry x="3250" y="3305" width="40" height="20" as="geometry" />
        </mxCell>
        <mxCell id="oWYilS1HCCAZtfWQUwDj-231" value="" style="endArrow=none;html=1;rounded=0;exitX=0.5;exitY=1;exitDx=0;exitDy=0;entryX=0;entryY=0;entryDx=0;entryDy=0;" parent="1" source="oWYilS1HCCAZtfWQUwDj-230" target="oWYilS1HCCAZtfWQUwDj-13" edge="1">
          <mxGeometry relative="1" as="geometry">
            <mxPoint x="3370" y="3450" as="sourcePoint" />
            <mxPoint x="3530" y="3450" as="targetPoint" />
          </mxGeometry>
        </mxCell>
        <mxCell id="oWYilS1HCCAZtfWQUwDj-233" value="Location" style="ellipse;whiteSpace=wrap;html=1;align=center;" parent="1" vertex="1">
          <mxGeometry x="4460" y="2910" width="60" height="40" as="geometry" />
        </mxCell>
        <mxCell id="oWYilS1HCCAZtfWQUwDj-234" value="" style="endArrow=none;html=1;rounded=0;exitX=0.5;exitY=1;exitDx=0;exitDy=0;entryX=0.5;entryY=0;entryDx=0;entryDy=0;" parent="1" source="oWYilS1HCCAZtfWQUwDj-233" target="oWYilS1HCCAZtfWQUwDj-6" edge="1">
          <mxGeometry relative="1" as="geometry">
            <mxPoint x="4340" y="3080" as="sourcePoint" />
            <mxPoint x="4500" y="3080" as="targetPoint" />
          </mxGeometry>
        </mxCell>
        <mxCell id="t54qMKbrty9UNNvdY_z2-3" value="Name" style="ellipse;whiteSpace=wrap;html=1;" vertex="1" parent="1">
          <mxGeometry x="3885" y="2840" width="50" height="20" as="geometry" />
        </mxCell>
        <mxCell id="t54qMKbrty9UNNvdY_z2-4" value="StaffID" style="ellipse;whiteSpace=wrap;html=1;" vertex="1" parent="1">
          <mxGeometry x="3780" y="2840" width="60" height="20" as="geometry" />
        </mxCell>
        <mxCell id="t54qMKbrty9UNNvdY_z2-5" value="" style="endArrow=none;html=1;rounded=0;exitX=0.5;exitY=1;exitDx=0;exitDy=0;entryX=0.25;entryY=0;entryDx=0;entryDy=0;" edge="1" parent="1" source="t54qMKbrty9UNNvdY_z2-4" target="oWYilS1HCCAZtfWQUwDj-4">
          <mxGeometry width="50" height="50" relative="1" as="geometry">
            <mxPoint x="3960" y="2950" as="sourcePoint" />
            <mxPoint x="4010" y="2900" as="targetPoint" />
          </mxGeometry>
        </mxCell>
        <mxCell id="t54qMKbrty9UNNvdY_z2-6" value="" style="endArrow=none;html=1;rounded=0;entryX=0.5;entryY=1;entryDx=0;entryDy=0;exitX=0.75;exitY=0;exitDx=0;exitDy=0;" edge="1" parent="1" source="oWYilS1HCCAZtfWQUwDj-4" target="t54qMKbrty9UNNvdY_z2-3">
          <mxGeometry width="50" height="50" relative="1" as="geometry">
            <mxPoint x="3960" y="2950" as="sourcePoint" />
            <mxPoint x="4010" y="2900" as="targetPoint" />
          </mxGeometry>
        </mxCell>
      </root>
    </mxGraphModel>
  </diagram>
</mxfile>
